<?xml version="1.0" encoding="utf-8"?>
<!-- Generator: Adobe Illustrator 19.1.0, SVG Export Plug-In . SVG Version: 6.00 Build 0)  -->
<svg version="1.1" id="Layer_1" xmlns="http://www.w3.org/2000/svg" xmlns:xlink="http://www.w3.org/1999/xlink" x="0px" y="0px"
	 viewBox="-350 641 48 54" style="enable-background:new -350 641 48 54;" xml:space="preserve">
<style type="text/css">
	.st0{fill:#0073CF;stroke:#6A9FD6;stroke-width:0.5;stroke-miterlimit:10;}
	.st1{fill:#F2D300;}
	.st2{fill:#FEDF01;}
	.st3{fill:#FFFFFF;}
	.st4{fill:#0073CF;}
</style>
<g>
	<path class="st0" d="M-310,686.8c0,1.7-0.7,2.7-2.1,3.2c-5.3,2-11.5,3.1-17.4,3.1s-12.2-1-17.4-3.1c-1.4-0.5-2.1-1.5-2.1-3.2V642
		h39V686.8z"/>
	<g>
		<g>
			<path class="st1" d="M-338.6,669.3c-5.4-3.4-7.2-4.8-7.3-7c0-0.4,0.1-1.2,0.3-1.7l-0.5-0.3c-0.4,0.6-0.7,1.5-0.7,2.3
				c0,1.3,0.4,2.2,0.9,3c0.8,1.2,1.6,1.9,3.5,3.4c2.1,1.6,3.6,3.4,4.4,5.4h0.3V672c2.9,1.6,5.4,3.1,6.6,5.9h0.3
				C-331.2,675-332.8,672.8-338.6,669.3z"/>
			<path class="st2" d="M-313.7,677.8h-0.4c0-2-1.8-2.6-3.8-2.6h-6c0.2,1,0.3,2.1,0.1,3.2h-0.3c-0.6-4.5-3.1-6.7-6.7-9.1v2h-0.3
				c-1-2.1-3-4.1-5-5.5l0,0c-0.5-0.4-1.1-0.8-1.6-1.1v2.2h-0.3c-0.8-2.2-2.4-3.8-4.5-5.8c-2.3-2.1-3.3-3.4-3.8-4.8
				c-0.3-0.9-0.4-1.6-0.4-2.5c0-1.7,0.9-3.3,1.9-3.9v0.8c-0.5,0.7-0.8,1.6-0.8,2.5c0,0.8,0.2,1.8,0.6,2.6c1.3,2.5,5.8,5.6,8.6,7.5
				c8.8,5.9,10.5,6.9,12,10c0.2,0.3,0.3,0.8,0.5,1.4c1.3-0.2,5.9-0.9,6.7-1c0.2,0,0.5-0.1,0.7-0.1c0.8-0.5,1.4-1.1,2-1.9l-3.4-0.3
				c-0.2,0.4-0.3,0.7-0.5,1h-0.3c0.1-0.3,0.2-0.7,0.2-1l-0.9-0.1v-0.2l0.9-0.1c0.2-0.9,0.3-1.8,0.3-2.7l-4.2-0.2c0,0.4,0,0.8,0,1.2
				h-0.3c-0.1-0.4-0.2-0.8-0.2-1.2l-0.9-0.1v-0.3h0.9c-0.1-1.1-0.1-2.2-0.1-3.1l-2.5-0.1c0.1,0.2,0.2,0.4,0.3,0.7
				c0.5,1.5,0.4,3.2,0.2,4h-0.3c0-0.9-0.4-2.1-0.7-2.8c-0.7-1.6-2.2-3-4.8-4.7v2.1h-0.3c-0.9-2.7-3-4.2-6.2-5.8
				c-2.6-1.3-3.4-2.9-3.3-5.4l0.9,0.5c0.2,2.3,2,3.7,3.9,3.7c1.1,0,2.2-0.2,3.2-0.4c1.5-0.3,2.8-0.5,3.9-0.1V655h-0.9
				c-0.3,0.3-1,0.6-1.9,0.6c-1,0-3-0.6-3-2.7c0-1.9,1.6-2.2,2.9-2.2c0.7,0,1.9,0,2.3,0c0.3,0,0.5-0.1,0.7-0.2
				c0.1-0.1,0.2-0.3,0.2-0.5c0-0.2,0-0.5,0-0.9c0-0.1,0-1.4,0-1.4h-6.1v2.4l-2.3-0.9v-0.6h1.1v-0.9h-4.1v-2h-1.4
				c-0.7,0-1.6,0.5-1.7,1.5s0.4,1.8,1.4,1.8h0.2v1.2h-0.2c-1.7,0-3.1-1.3-3.1-3c0-1.8,1.5-3.2,3.4-3.2h3v2h11.5c0,0,0,2.4,0,2.9
				s0,1.2-0.1,1.6c0,0.3-0.1,0.9-0.7,1.3c-0.4,0.3-0.9,0.4-1.7,0.4c-0.3,0-1.1,0-2.1-0.1c-1.3-0.1-1.7,0.4-1.7,0.9
				c0,0.1,0,0.2,0,0.3c0.6-0.5,1.5-0.8,2.5-0.5c1.7,0.5,2.2,0.6,3.1-0.1l0.1,0.2c-0.1,0.2-0.3,0.4-0.5,0.6h0.8v4.5l2.6-1.6h7.3
				c0,0,3.1,1.6,3.6,1.9c0.4,0.2,0.6,0.5,0.7,0.9c0.1,0.3,0,0.8-0.2,1.1c-0.1,0.2-0.9,1.5-1.4,2.3c1.2,1.3,2.1,3.2,2.1,5.3
				c0,1.9-0.7,4.3-3,6.1c1,0.3,1.6,0.9,2.2,1.6L-313.7,677.8z M-330,653.5c-1-0.2-1.6-0.1-2.2,0.5c0.3,0.1,0.7,0.2,1.1,0.2
				C-330.6,654.1-330.2,653.8-330,653.5z M-330.6,660l2.9-1.7c-0.6-0.3-1.2-0.5-1.9-0.5c-1,0-2.7,0.4-3.5,0.6
				C-332.8,658.6-331.5,659.5-330.6,660z M-317.7,660.2l0.4-0.6l-0.6-0.8l0.1-0.2l1.7,0.9l-0.4,1.1c0.3,0.1,0.5,0.3,0.9,0.5l1.1-1.8
				l-2.9-1.5h-6.5l-5.2,3.1c1,0.7,1.9,1.4,2.5,2.2c1.4-2,3.9-3.3,6.3-3.3C-319.4,659.9-318.5,659.9-317.7,660.2z M-318.2,667.5
				c0-1-0.2-1.8-0.3-2.6l-3.4-0.2c-0.2,1-0.4,2-0.5,3L-318.2,667.5z M-317.1,665c0.1,0.9,0.1,1.7,0.1,2.5l3.4-0.2
				c-0.1-0.8-0.3-1.5-0.6-2.2L-317.1,665z M-318.8,663.9c-0.4-1.2-0.8-2.1-1-2.5c-0.1,0-0.3,0-0.4,0c-0.2,0-0.5,0-0.7,0.1
				c-0.3,0.9-0.6,1.7-0.9,2.6L-318.8,663.9z M-317.8,661.8c0.3,0.7,0.4,1.3,0.6,2l2.1-0.1C-315.9,662.9-316.8,662.2-317.8,661.8z
				 M-314,670.5c0.2-0.6,0.4-1.1,0.4-1.9l-3.5-0.2c-0.2,1-0.4,1.8-0.7,2.5L-314,670.5z M-322.7,662c-1.2,0.5-2,1.2-2.7,2.3l2.4-0.1
				C-322.9,663-322.8,662.3-322.7,662z"/>
		</g>
		<g>
			<path class="st3" d="M-327.2,683c1-0.2,1.9-0.9,1.9-2.1c0-1-0.4-2.2-3.5-2.2c-2.3,0-5.2,0-5.2,0v0.1c0.2,0,0.4,0.2,0.6,0.3
				c0.4,0.3,0.5,0.9,0.5,1.5v7.7c0,0,2.8,0,4.3,0c2.4,0,4.1-0.9,4.1-2.9C-324.6,683.8-325.9,683.1-327.2,683z M-329.4,679.7
				c1.1,0,1.8,0.2,1.8,1.4c0,1.2-1,1.6-2.1,1.6c-0.6,0-1,0-1,0v-3C-330.7,679.7-330.1,679.7-329.4,679.7z M-329.3,687.5
				c-0.5,0-1.4,0-1.4,0v-3.9c0,0,0.8,0,1.3,0c1.8,0,2.5,0.5,2.5,1.9C-326.9,686.9-327.8,687.5-329.3,687.5z"/>
			<path class="st3" d="M-337.8,688.4h2.8l-3.6-4.5c1.4-0.4,2.5-1.2,2.5-2.6c0-1.7-1-2.5-3.6-2.5c-2.3,0-5.4,0-5.4,0v0.1
				c0.2,0.1,0.4,0.2,0.6,0.3c0.4,0.4,0.5,0.9,0.5,1.7v7.5h2.2v-4.3c0,0,0.5,0,0.8,0L-337.8,688.4z M-341.8,679.7c0,0,0.9,0,1.5,0
				c1.3,0,1.9,0.4,1.9,1.7c0,1.2-0.9,1.9-2.2,1.9c-0.6,0-1.2,0-1.2,0L-341.8,679.7L-341.8,679.7z"/>
			<path class="st3" d="M-315.5,680.1c0.6,0.3,0.8,0.8,0.8,0.8h0.1l0.5-1.7c0,0-0.9-0.6-3-0.6c-3.2,0-5.5,1.6-5.5,5
				c0,3.9,2.8,4.9,5.3,4.9c2.3,0,3.2-0.7,3.2-0.7v-1.1c0,0-0.8,0.8-2.6,0.8c-1.4,0-3.6-0.7-3.6-3.9c0-3,1.3-3.9,3-3.9
				C-316.3,679.7-315.8,679.9-315.5,680.1z"/>
		</g>
	</g>
	<path class="st4" d="M-305.9,693.7c-1.4,0-2.5-1.1-2.5-2.5s1.1-2.5,2.5-2.5s2.5,1.1,2.5,2.5S-304.5,693.7-305.9,693.7z
		 M-305.9,689.2c-1.1,0-1.9,0.9-1.9,2s0.8,2,1.9,2s1.9-0.9,1.9-2S-304.8,689.2-305.9,689.2z M-305.7,689.8c0.5,0,0.8,0.3,0.8,0.8
		c0,0.4-0.3,0.8-0.6,0.8c0.1,0,0.1,0.1,0.1,0.1c0.2,0.2,0.7,1.1,0.7,1.1h-0.7c-0.1-0.2-0.2-0.3-0.3-0.5c-0.3-0.5-0.4-0.6-0.5-0.7
		h-0.1v1.2h-0.5v-2.8H-305.7L-305.7,689.8z M-306.2,691h0.2c0.2,0,0.3,0,0.4-0.1c0.1-0.1,0.1-0.2,0.1-0.3c0-0.2-0.1-0.3-0.2-0.3
		s-0.2,0-0.3,0h-0.2V691L-306.2,691z"/>
</g>
</svg>
